# xmcd
#
# Track frame offsets: 
#        150
#        11205
#        20368
#        31358
#        42120
#        54900
#        65963
#        74090
#        85720
#        96243
#        108993
#
# Disc length: 1561 seconds
#
# Revision: 3
# Processed by: cddbd v1.5.1PL0 Copyright (c) Steve Scherf et al.
# Submitted via: ExactAudioCopy v0.95a4
#
DISCID=9206170b
DTITLE=Roger Miller - King of the Road
DYEAR=1992
DGENRE=Country
TTITLE0=King of  the Road
TTITLE1=Chug-a-lug
TTITLE2=Everythings Coming Up Roses
TTITLE3=Burning Bridges
TTITLE4=Heartaches By the Number
TTITLE5=Husbands and Wives
TTITLE6=The Summertime
TTITLE7=Walkin' in Sunshine
TTITLE8=Kansas City Star
TTITLE9=Last Word in Lonesome Is Me
TTITLE10=Do Wacka Do
EXTD=0\n\n\n
EXTT0=
EXTT1=
EXTT2=
EXTT3=
EXTT4=
EXTT5=
EXTT6=
EXTT7=
EXTT8=
EXTT9=
EXTT10=
PLAYORDER=
